<?xml version="1.0" encoding="UTF-8" standalone="no"?><!DOCTYPE svg PUBLIC "-//W3C//DTD SVG 1.1//EN" "http://www.w3.org/Graphics/SVG/1.1/DTD/svg11.dtd"><svg width="100%" height="100%" viewBox="0 0 5042 5042" version="1.1" xmlns="http://www.w3.org/2000/svg" xmlns:xlink="http://www.w3.org/1999/xlink" xml:space="preserve" xmlns:serif="http://www.serif.com/" style="fill-rule:evenodd;clip-rule:evenodd;stroke-linejoin:round;stroke-miterlimit:2;"><rect id="Symbol" x="0" y="-0" width="5041.67" height="5041.67" style="fill:none;"/><g><path d="M1006.22,1885.35c-34.541,50.458 -64.166,100.833 -65.625,163.541c-2.009,-22.739 -3.461,-60.797 -14.361,-81.978c-24,-46.639 -52.284,-70.32 -88.764,-106.563c-17.515,-17.402 -59.549,-60.251 -81.541,-72.625c-122.726,-69.058 -271.483,-88.602 -409.107,-60.622c-30.928,6.289 -61.427,15.588 -90.456,27.975c-29.913,12.765 -58.89,28.324 -85.451,47.091c-89.591,63.3 -144.114,152.714 -151.35,262.603c-2.668,40.531 -1.972,81.214 -2.882,121.822c-1.78,79.42 -17.536,193.465 17.852,271.368c34.655,76.289 128.093,120.512 205.591,136.315c147.978,30.175 355.186,-25.22 414.311,-179.988c16.071,-42.07 19.477,-91.153 14.036,-135.497c-8.188,-66.733 -52.46,-125.078 -112.891,-153.35c-96.11,-44.964 -230.796,18.786 -252.487,123.449c-38.724,-153.792 158.804,-213.493 273.99,-177.541c90.159,28.14 126.687,144.003 170.594,212.125c33.125,51.5 70.208,95.583 106.458,143.541c49.306,65.364 62.285,74.013 107.625,142.375c67.638,101.984 131.781,206.266 199.874,307.947c22.583,33.722 46.186,66.875 72.069,98.137c26.748,32.306 103.353,101.375 127.724,135.916c-149.838,-105.087 -254.823,-259.103 -395.269,-374.996c-65.551,-54.092 -154.093,-78.87 -236.955,-88.509c-142.12,-16.533 -287.903,-16.77 -425.818,26.297c-75.372,23.587 -149.877,62.149 -199.25,125.75c-38.879,50.082 -76.155,105.517 -85.283,169.828c-8.024,56.53 13.723,111.68 34.756,162.652c63.57,154.059 213.54,310.957 386.54,331.261c194.091,22.78 358.613,-146.335 337.945,-339.783c-4.576,-24.743 -16.829,-57.689 -33.656,-77.083c-82.514,-95.102 -264.898,-31.185 -247.175,101.308c1.986,14.846 7.386,29.255 13.976,42.706c6.593,13.457 15.019,26.23 25.189,37.236c-43.444,-21.446 -60.18,-82.478 -59.713,-127.041c1.043,-99.499 38.378,-231.46 163.787,-221.933c154.393,11.729 193.719,180.266 249.306,293.984c38.18,78.109 99.038,144.7 157.398,207.459c19.401,20.862 54.105,58.213 84.381,72.031c10.637,4.855 22.232,8.908 33.924,8.917c311.695,0.226 1769.07,-13.273 2140.57,-17.667c43.885,-0.519 86.486,-3.254 129.701,-11.492c169.92,-32.39 283.06,-153.176 361.841,-301.133c72.375,-135.926 124.738,-297.4 260.417,-385.417c102.641,-66.584 240.591,-36.269 352.406,-35.38c102.462,0.815 204.912,-4.202 307.375,-3.51c46.476,0.313 99.012,17.137 144.526,-2.823c66.06,-28.972 111.127,-87.356 132.976,-154.897c7.321,-22.629 18.142,-61.392 -6.474,-79.802c-3.885,-2.906 -9.416,-2.887 -14.268,-2.879c-33.991,0.054 -105.046,4.117 -138.416,11.583c-15.581,-21.335 -44.807,-23.24 -68.643,-19.893c-22.089,3.102 -22.725,15.803 -45.894,15.731c-21.993,-0.068 -21.755,-12.784 -42.606,-15.911c-23.572,-3.535 -48.038,6.349 -71.477,2.021c-23.853,-4.405 -45.77,-16.973 -69.709,-20.886c-21.756,-3.556 -54.152,3.548 -64.171,26.438c16.291,-14.5 6.916,5.625 20.833,12.5c-48.013,3.371 -115.587,-38.533 -112.446,-92.22c1.335,-22.828 11.807,-35.317 28.057,-51.85c23.093,-23.493 69.191,-55.296 100.105,-26.477c10.02,9.341 23.689,42.482 45.037,33.418c30.589,-12.988 33.739,-55.77 68.414,-62.871c7.607,14.578 15.971,28.961 26.414,41.663c37.645,45.788 57.822,-12.762 90.252,-24.996c10.292,22 39.25,9.041 58.334,12.5c3.75,-25.375 34.25,-15.834 25,8.333c19.708,2.542 44.833,8.583 58.333,-8.333c13.101,29.704 52.283,27.566 73.034,6.612c13.872,-14.008 25.03,-45.831 33.272,-59.497c9.429,-15.635 29.395,-32.067 34.633,-50.572c6.013,-21.245 7.151,-78.266 7.005,-99.936c-0.455,-67.348 5.306,-135.756 -35.321,-193.683c-32.592,-46.472 -97.254,-73.787 -152.696,-75.051c-34.883,-0.795 -80.811,-0.124 -101.594,34.627c-21.182,3.879 -42.986,2.749 -64.505,3.567c-55.034,2.094 -116.692,9.256 -168.495,-16.401c-42.035,-20.819 -83.296,-43.301 -123.458,-67.536c-16.559,-9.993 -40.278,-40.525 -61.441,-44.104c-140.922,-23.831 -282.987,-40.472 -424.868,-57.691c-341.304,-41.423 -608.639,-63.855 -955.845,-87.968c-353.659,-24.561 -712.488,-33.735 -1066.42,-9.28c-78.385,5.416 -156.728,12.392 -234.615,22.744c-221.899,29.493 -497.387,72.45 -634.47,272.294Zm1796.62,551.041c65.933,124.944 231.313,112.473 345.703,79.063c20.39,-5.956 125.949,-51.45 146.006,-58.188c78.058,-26.221 177.596,41.48 185.443,122.446c4.103,42.334 1.208,84.245 -0.428,126.559c-1.88,48.635 -2.051,115.715 -14.224,163.454c-7.175,-88.254 -35.839,-170.957 -119.5,-213.834c-114.568,-58.718 -308.902,-36.722 -336.925,110.531c-2.023,10.636 -10.206,76.026 3.87,94.939c37.356,50.192 128.694,118.844 178.492,44.378c8.685,-12.987 16.369,-26.849 21.756,-41.514c9.764,-26.581 13.053,-62.319 10.641,-90.334c69.934,68.137 17.308,165.33 -48.005,213.019c-19.312,14.101 -53.052,33.568 -78.145,34.297c-19.361,16.124 -45.915,27.473 -69.567,35.631c-73.817,25.458 -194.422,67.126 -277.669,88.222c-163.732,41.49 -322.606,53.171 -489.126,20.695c-119.926,-23.388 -266.827,-102.922 -365.103,-147.322c-40.537,-18.314 -120.326,-54.133 -164.733,-83.432c-51.234,-33.801 -93.265,-76.802 -134.787,-122.149c-93.356,-101.954 -182.212,-225.481 -232.047,-355.396c-61.267,-159.72 -54.493,-402.853 114.577,-497.223c52.044,-29.049 95.372,-50.856 153.737,-60.314c73.137,-11.851 153.503,-5.042 224.461,15.639c150.471,43.76 360.534,204.713 271.125,383.625c-39.417,79 -114.708,144.167 -200.292,141.375c38.705,-2.956 65.771,-45.791 82.162,-74.453c32.453,-56.751 65.448,-147.57 10.429,-202.462c-48.736,-48.623 -134.43,-57.55 -198.976,-53.166c-159.143,10.809 -334.73,154.015 -281.198,330.164c7.025,23.116 17.221,45.372 29.318,66.285c24.114,41.684 58.38,77.54 94.823,108.443c33.764,28.63 71.256,55.572 113.775,69.947c58.019,19.614 123.853,16.589 183.051,5.124c147.012,-28.472 281.549,-128.947 359.929,-256.251c10.594,-17.207 21.018,-34.8 28.031,-53.751c21.364,-57.729 5.717,-61.204 26.046,-119.405c18.366,-52.583 39.984,-84.835 81.235,-122.152c95.688,-86.563 286.243,-150.894 395.513,-47.28c70.912,67.24 -28.617,145.901 -62.939,197.915c-29.256,44.337 -3.689,105.304 13.541,146.875Z"/></g></svg>